<svg xmlns="http://www.w3.org/2000/svg" width="900" height="520" viewBox="0 0 900 520">
  <defs>
    <linearGradient id="bg" x1="0" x2="1" y1="0" y2="1">
      <stop offset="0" stop-color="#0f1a33"/>
      <stop offset="1" stop-color="#101a2f"/>
    </linearGradient>
    <linearGradient id="accent" x1="0" x2="1">
      <stop offset="0" stop-color="#8a1538"/>
      <stop offset="1" stop-color="#d7a411"/>
    </linearGradient>
  </defs>
  <rect width="900" height="520" fill="url(#bg)"/>
  <circle cx="170" cy="110" r="90" fill="rgba(74,163,255,0.18)"/>
  <circle cx="780" cy="120" r="110" fill="rgba(215,164,17,0.14)"/>
  <path d="M110 360c110-140 210-170 340-90s210 120 340-30v160H110z" fill="rgba(255,255,255,0.04)"/>
  <rect x="120" y="140" width="280" height="210" rx="22" fill="rgba(255,255,255,0.06)" stroke="rgba(255,255,255,0.10)"/>
  <rect x="450" y="110" width="330" height="260" rx="22" fill="rgba(255,255,255,0.06)" stroke="rgba(255,255,255,0.10)"/>
  <rect x="160" y="185" width="200" height="14" rx="7" fill="url(#accent)"/>
  <rect x="160" y="215" width="240" height="14" rx="7" fill="rgba(255,255,255,0.18)"/>
  <rect x="160" y="245" width="180" height="14" rx="7" fill="rgba(255,255,255,0.12)"/>
  <rect x="490" y="160" width="250" height="14" rx="7" fill="url(#accent)"/>
  <rect x="490" y="190" width="290" height="14" rx="7" fill="rgba(255,255,255,0.18)"/>
  <rect x="490" y="220" width="220" height="14" rx="7" fill="rgba(255,255,255,0.12)"/>
  <text x="120" y="420" font-family="Arial, sans-serif" font-size="26" fill="rgba(238,242,255,0.85)" font-weight="700">Learning • Leadership • Service</text>
</svg>
